<svg width="22" height="22" viewBox="0 0 22 22" fill="none" xmlns="http://www.w3.org/2000/svg">
<path d="M18.8121 21.8247H3.18788C1.44008 21.8247 0.0100708 20.3947 0.0100708 18.6469V4.13492C0.0100708 1.93693 1.78435 0.162659 3.98233 0.162659H18.0176C20.2156 0.162659 21.9899 1.93693 21.9899 4.13492V10.0933C21.9899 10.5435 21.6456 10.8878 21.1954 10.8878H1.59897V18.6469C1.59897 19.5208 2.31398 20.2358 3.18788 20.2358H18.8121C19.686 20.2358 20.401 19.5208 20.401 18.6469V13.8272C20.401 13.377 20.7453 13.0328 21.1954 13.0328C21.6456 13.0328 21.9899 13.377 21.9899 13.8272V18.6469C21.9899 20.3947 20.5599 21.8247 18.8121 21.8247ZM1.59897 9.29885H20.401V4.13492C20.401 2.81083 19.3417 1.75156 18.0176 1.75156H3.98233C2.65824 1.75156 1.59897 2.81083 1.59897 4.13492V9.29885Z" fill="white"/>
</svg>
